<?xml version="1.0" encoding="utf-8"?>
<!-- Generator: Adobe Illustrator 17.0.0, SVG Export Plug-In . SVG Version: 6.00 Build 0)  -->
<!DOCTYPE svg PUBLIC "-//W3C//DTD SVG 1.1//EN" "http://www.w3.org/Graphics/SVG/1.1/DTD/svg11.dtd">
<svg version="1.1" id="Layer_1" xmlns="http://www.w3.org/2000/svg" xmlns:xlink="http://www.w3.org/1999/xlink" x="0px" y="0px"
	 width="500px" height="135px" viewBox="0 0 500 135" enable-background="new 0 0 500 135" xml:space="preserve">
<path fill="#51C4CC" d="M282.878,58.359c0,0-2.85,8.584,7.193,8.279c0.444-0.014,4.513,0.407,7.159-7.329
	c0.038-0.11,8.353-35.225,8.353-35.225l0.096-3.047h12.215c0,0-8.722,35.413-8.754,35.525
	c-4.682,16.286-20.285,13.877-20.561,13.877c-21.715,0.007-15.743-17.372-15.743-17.372l6.243-28.773v-3.257h12.079L282.878,58.359z
	"/>
<path fill="#51C4CC" d="M323.797,70.564c2.748,0.033,4.377-0.567,5.293-4.231l9.327-41.093l7.265,0.021c0,0,3.395,0.561,3.512,7.074
	c0.051,2.85-0.814,14.2-13.029,14.098c0.222,1.575,3.868,20.358,3.868,20.358s0.611,4.122,6.871,4.122h3.97
	c0,0-5.002-23.018-4.631-22.852c15.065-2.261,14.457-12.469,14.454-14.607c-0.013-8.092-8.041-12.418-14.098-12.418h-18.003v3.257
	l-10.702,46.27H323.797z"/>
<path fill="#51C4CC" d="M308.054,130.01c2.748,0.033,4.377-0.567,5.293-4.231l9.327-41.093l7.265,0.021c0,0,3.395,0.561,3.512,7.074
	c0.051,2.85-0.814,14.2-13.029,14.098c0.222,1.575,3.868,20.358,3.868,20.358s0.611,4.122,6.871,4.122h3.97
	c0,0-5.002-23.018-4.631-22.852c15.065-2.261,14.457-12.469,14.454-14.607c-0.013-8.092-8.041-12.418-14.098-12.418h-18.003v3.257
	l-10.702,46.27H308.054z"/>
<path fill="#51C4CC" d="M497.067,93.075c-0.013-8.092-7.827-12.418-15.631-12.418h-16.469v3.257l-10.702,46.27h5.904
	c2.748,0.033,4.377-0.567,5.293-4.231l9.327-41.093l5.426,0.015c0,0,5.235,0.566,5.351,7.08c0.051,2.85-0.814,14.2-13.029,14.098
	c0.861,0.41,4.987,1.804,9.647,1.369C497.451,105.997,497.07,95.212,497.067,93.075z"/>
<path fill="#51C4CC" d="M291.449,80.482v3.257l-10.702,46.27h5.904c2.748,0.033,4.377-0.567,5.293-4.231l10.206-45.296H291.449z"/>
<path fill="#51C4CC" d="M442.776,80.656v3.257l-10.702,46.27h5.904c2.748,0.033,4.377-0.567,5.293-4.231l10.206-45.296H442.776z"/>
<path fill="#51C4CC" d="M476.584,25.413c-0.61-1.293-0.7-4.377-3.868-4.377l-10.029,0.001v3.257l-10.702,46.27h5.904
	c2.748,0.033,4.377-0.567,5.293-4.231l6.892-30.365l7.019,34.598h11.197l11.604-49.529l-10.892-0.001l0.204,3.97l-6.922,28.705
	L476.584,25.413z"/>
<path fill="#51C4CC" d="M374.692,70.913c2.034,0.024-0.53-0.489-1.629-2.244c-0.385-0.616-0.59-1.384-0.352-2.336l9.327-41.093
	l2.629,0.007c1.697,0.132,5.324,2.172,5.429,8.072c0.051,2.85,0.068,11.468-9.161,13.301c2.375,0.814,5.632,3.054,5.565,9.365
	c-0.006,0.583,0.95,11.265-14.793,10.858C366.932,66.718,373.189,70.913,374.692,70.913c20.629,0,23.38-9.626,23.479-13.504
	c0.204-7.94-6.606-9.488-8.143-10.518c10.993-2.172,11.539-10.688,11.536-12.825c-0.013-8.092-7.94-13.029-16.151-13.029h-13.197
	v3.257l-10.702,46.62H374.692z"/>
<path fill="#51C4CC" d="M436.716,21.037h-13.524l0.088,4.682l-22.462,45.195c0.225-0.028,3.285,0.001,3.529,0.001
	c7.465-0.001,9.636-6.108,9.636-6.108l15.404-30.469l2.262,12.147h-1.041c0,0-5.565,0.475-6.922,5.768h9.037l2.364,12.69
	c0,0,1.221,5.972,6.447,5.972h5.022C446.556,70.914,436.241,21.037,436.716,21.037z"/>
<path fill="#51C4CC" d="M265.71,80.482h-13.524l0.088,4.682l-22.462,45.195c0.225-0.028,3.285,0.001,3.529,0.001
	c7.465-0.001,9.636-6.108,9.636-6.108l15.404-30.469l2.262,12.147h-1.041c0,0-5.565,0.475-6.922,5.768h9.037l2.364,12.69
	c0,0,1.221,5.972,6.447,5.972h5.022C275.549,130.359,265.234,80.482,265.71,80.482z"/>
<path fill="#51C4CC" d="M419.161,80.656v3.257l-4.449,19.233h-15.337l5.107-22.665h-10.701v3.257l-10.702,46.27h5.904
	c2.748,0.033,4.377-0.567,5.293-4.231l3.754-16.66h15.301l-4.872,21.065l9.731,0.176l11.672-49.703H419.161z"/>
<path fill="#51C4CC" d="M366.854,80.656c-1.985,0-15.217,0.523-15.218,14.025c0,11.451,13.589,15.167,13.691,22.088
	c0.204,9.721-9.683,9.325-14.442,9.239c-4.176-0.076-5.589,4.177-5.589,4.177h12.041c2.85,0,19.798-1.339,19.798-14.84
	c-0.051-13.233-13.742-17.05-13.691-23.004c0.062-7.278,9.286-7.593,14.046-7.507c4.176,0.076,5.589-4.177,5.589-4.177H366.854z"/>
<path fill="#FFFFFF" d="M230.965,34.575c4.667,17.915-6.616,50.589-61.481,72.78c-2.85,4.988-6.006,15.879-22.801,21.07
	c-1.738,0.537-32.127,6.309-32.127,6.309c-3.703,0.613-11.948,1.427-23.653-13.332l-28.094-3.257
	c-2.85,8.856-12.011,11.197-21.681,13.538l-5.395-22.394c0,0-6.311-2.138-11.909-9.263l-19.645,6.107
	c0-9.874,10.659-14.955,16.083-17.202c0.407-8.856,4.479-15.167,6.515-17.508l-3.563-14.047l13.08-7.592
	c5.14-2.791,7.835-1.577,11.96-1.366C99.453,8.211,151.176,3.257,172.538,3.257C217.631,3.257,228.315,24.402,230.965,34.575z"/>
<path fill="#005273" d="M226.894,31.317c4.667,17.915-6.616,50.589-61.481,72.78c-2.85,4.988-6.006,15.879-22.801,21.07
	c-1.738,0.537-32.127,6.309-32.127,6.309c-3.703,0.613-11.948,1.427-23.653-13.332l-28.094-3.257
	c-2.85,8.856-12.011,11.197-21.681,13.538l-5.395-22.394c0,0-6.311-2.138-11.909-9.263l-19.645,6.107
	c0-9.874,10.659-14.955,16.083-17.202c0.407-8.856,4.479-15.167,6.515-17.508l-3.563-14.047l13.08-7.592
	c5.14-2.791,7.835-1.577,11.96-1.366C95.382,4.954,147.104,0,168.467,0C213.559,0,224.244,21.144,226.894,31.317z"/>
<path fill="#FFFFFF" d="M191.946,48.723c-18.186,15.065-48.855,24.756-75.189,32.573c-38.409,11.4-65.519,12.893-72.746,12.893
	c-18.458,0-21.037-5.557-21.037-9.941c0-12.825,14.542-29.131,38.756-45.233c26.211-17.43,64.06-32.484,108.364-32.908
	c2.228-0.021,35.4,0.84,42.344,14.929c0.659,1.336,0.135,5.91-6.096,3.968c-8.155-2.543-17.173-2.305-19.555-2.203
	c-66.774,2.85-140.198,41.802-142.37,44.787c98.668-43.023,154.583-36.679,157.027-33.794
	C132.229,43.702,38.854,82.653,38.854,82.653L191.946,48.723z"/>
<path fill="#005273" d="M201.752,18.39c-35.117-5.904-73.187,2.381-96.904,9.975C108.91,26.331,166.125,3.02,201.752,18.39z"/>
<polygon fill="#FFFFFF" points="107.06,113.283 96.594,116.071 94.465,113.36 106.375,109.797 "/>
<polygon fill="#FFFFFF" points="123.781,108.881 111.77,111.833 111.363,108.627 123.205,105.569 "/>
<polygon fill="#FFFFFF" points="140.271,104.504 128.26,107.456 127.852,104.25 139.695,101.192 "/>
<path fill="#FFFFFF" d="M150.857,103.283h-6.209v-3.155h6.209c4.581,0.373,6.684,2.07,6.684,2.07l-1.086,2.85
	C154.555,103.961,150.857,103.283,150.857,103.283z"/>
</svg>
