<?xml version="1.0" encoding="utf-8"?>
<!-- Generator: Adobe Illustrator 17.0.0, SVG Export Plug-In . SVG Version: 6.00 Build 0)  -->
<!DOCTYPE svg PUBLIC "-//W3C//DTD SVG 1.1//EN" "http://www.w3.org/Graphics/SVG/1.1/DTD/svg11.dtd">
<svg version="1.1" id="Layer_1" xmlns="http://www.w3.org/2000/svg" xmlns:xlink="http://www.w3.org/1999/xlink" x="0px" y="0px"
	 width="499.787px" height="131.743px" viewBox="0 0 499.787 131.743" enable-background="new 0 0 499.787 131.743"
	 xml:space="preserve">
<path d="M282.772,58.359c0,0-2.85,8.584,7.193,8.279c0.444-0.014,4.513,0.407,7.159-7.329c0.038-0.11,8.353-35.225,8.353-35.225
	l0.096-3.047h12.215c0,0-8.722,35.413-8.754,35.525c-4.682,16.286-20.285,13.877-20.561,13.877
	c-21.715,0.007-15.743-17.372-15.743-17.372l6.243-28.773v-3.257h12.079L282.772,58.359z"/>
<path d="M323.691,70.564c2.748,0.033,4.377-0.567,5.293-4.231l9.327-41.093l7.265,0.021c0,0,3.395,0.561,3.512,7.074
	c0.051,2.85-0.814,14.2-13.029,14.098c0.222,1.575,3.868,20.358,3.868,20.358s0.611,4.122,6.871,4.122h3.97
	c0,0-5.002-23.018-4.631-22.852C361.2,45.8,360.593,35.592,360.59,33.455c-0.013-8.092-8.041-12.418-14.098-12.418h-18.003v3.257
	l-10.702,46.27H323.691z"/>
<path d="M307.948,130.01c2.748,0.033,4.377-0.567,5.293-4.231l9.327-41.093l7.265,0.021c0,0,3.395,0.561,3.512,7.074
	c0.051,2.85-0.814,14.2-13.029,14.098c0.222,1.575,3.868,20.358,3.868,20.358s0.611,4.122,6.871,4.122h3.97
	c0,0-5.002-23.018-4.631-22.852c15.065-2.261,14.457-12.469,14.454-14.607c-0.013-8.092-8.041-12.418-14.098-12.418h-18.003v3.257
	l-10.702,46.27H307.948z"/>
<path d="M496.96,93.075c-0.013-8.092-7.827-12.418-15.631-12.418H464.86v3.257l-10.702,46.27h5.904
	c2.748,0.033,4.377-0.567,5.293-4.231l9.327-41.093l5.426,0.015c0,0,5.235,0.566,5.351,7.08c0.051,2.85-0.814,14.2-13.029,14.098
	c0.861,0.41,4.987,1.804,9.647,1.369C497.344,105.997,496.964,95.212,496.96,93.075z"/>
<path d="M291.343,80.482v3.257l-10.702,46.27h5.904c2.748,0.033,4.377-0.567,5.293-4.231l10.206-45.296H291.343z"/>
<path d="M442.67,80.656v3.257l-10.702,46.27h5.904c2.748,0.033,4.377-0.567,5.293-4.231l10.206-45.296H442.67z"/>
<path d="M476.477,25.413c-0.61-1.293-0.7-4.377-3.868-4.377l-10.029,0.001v3.257l-10.702,46.27h5.904
	c2.748,0.033,4.377-0.567,5.293-4.231l6.892-30.365l7.019,34.598h11.197l11.604-49.529l-10.892-0.001l0.204,3.97l-6.922,28.705
	L476.477,25.413z"/>
<path d="M374.586,70.913c2.034,0.024-0.53-0.489-1.629-2.244c-0.385-0.616-0.59-1.384-0.352-2.336l9.327-41.093l2.629,0.007
	c1.697,0.132,5.324,2.172,5.429,8.072c0.051,2.85,0.068,11.468-9.161,13.301c2.375,0.814,5.632,3.054,5.565,9.365
	c-0.006,0.583,0.95,11.265-14.793,10.858C366.826,66.718,373.083,70.913,374.586,70.913c20.629,0,23.38-9.626,23.479-13.504
	c0.204-7.94-6.606-9.488-8.143-10.518c10.993-2.172,11.539-10.688,11.536-12.825c-0.013-8.092-7.94-13.029-16.151-13.029H372.11
	v3.257l-10.702,46.62H374.586z"/>
<path d="M436.61,21.037h-13.524l0.088,4.682l-22.462,45.195c0.225-0.028,3.285,0.001,3.529,0.001
	c7.465-0.001,9.636-6.108,9.636-6.108l15.404-30.469l2.262,12.147h-1.041c0,0-5.565,0.475-6.922,5.768h9.037l2.364,12.69
	c0,0,1.221,5.972,6.447,5.972h5.022C446.449,70.914,436.135,21.037,436.61,21.037z"/>
<path d="M265.603,80.482h-13.524l0.088,4.682l-22.462,45.195c0.225-0.028,3.285,0.001,3.529,0.001
	c7.465-0.001,9.636-6.108,9.636-6.108l15.404-30.469l2.262,12.147h-1.041c0,0-5.565,0.475-6.922,5.768h9.037l2.364,12.69
	c0,0,1.221,5.972,6.447,5.972h5.022C275.443,130.359,265.128,80.482,265.603,80.482z"/>
<path d="M419.055,80.656v3.257l-4.449,19.233h-15.337l5.107-22.665h-10.701v3.257l-10.702,46.27h5.904
	c2.748,0.033,4.377-0.567,5.293-4.231l3.754-16.66h15.301l-4.872,21.065l9.731,0.176l11.672-49.703H419.055z"/>
<path d="M366.748,80.656c-1.985,0-15.217,0.523-15.218,14.025c0,11.451,13.589,15.167,13.691,22.088
	c0.204,9.721-9.683,9.325-14.442,9.239c-4.176-0.076-5.589,4.177-5.589,4.177h12.041c2.85,0,19.798-1.339,19.798-14.84
	c-0.051-13.233-13.742-17.05-13.691-23.004c0.062-7.278,9.286-7.593,14.046-7.507c4.176,0.076,5.589-4.177,5.589-4.177H366.748z"/>
<path d="M201.645,18.39c-35.117-5.904-73.187,2.381-96.904,9.975C108.803,26.331,166.019,3.02,201.645,18.39z"/>
<path d="M226.787,31.317C224.137,21.144,213.453,0,168.36,0C146.998,0,95.275,4.954,44.075,45.161
	c-4.126-0.212-6.82-1.425-11.96,1.366l-13.08,7.592l3.563,14.047c-2.036,2.341-6.107,8.652-6.515,17.508
	C10.659,87.921,0,93.002,0,102.875l19.645-6.107c5.598,7.125,11.909,9.263,11.909,9.263l5.395,22.394
	c9.67-2.341,18.831-4.682,21.681-13.538l28.094,3.257c11.706,14.76,19.951,13.945,23.654,13.332c0,0,30.389-5.772,32.127-6.309
	c16.795-5.191,19.951-16.083,22.801-21.07C220.171,81.907,231.454,49.232,226.787,31.317z M96.487,116.071l-2.128-2.712
	l11.909-3.563l0.685,3.486L96.487,116.071z M111.663,111.833l-0.407-3.206l11.843-3.057l0.576,3.312L111.663,111.833z
	 M128.153,107.456l-0.407-3.206l11.843-3.057l0.576,3.312L128.153,107.456z M156.349,105.047c-1.9-1.086-5.598-1.764-5.598-1.764
	h-6.209v-3.156h6.209c4.581,0.373,6.684,2.07,6.684,2.07L156.349,105.047z M206.237,25.004c-8.155-2.543-17.173-2.305-19.555-2.203
	c-66.774,2.85-140.198,41.802-142.37,44.787C142.98,24.565,198.895,30.909,201.34,33.794
	C132.123,43.702,38.748,82.653,38.748,82.653l153.092-33.93c-18.186,15.065-48.855,24.756-75.189,32.573
	c-38.409,11.4-65.519,12.893-72.746,12.893c-18.458,0-21.036-5.557-21.036-9.941c0-12.826,14.542-29.131,38.756-45.233
	c26.211-17.43,64.06-32.484,108.364-32.908c2.228-0.021,35.4,0.84,42.344,14.929C212.992,22.373,212.468,26.947,206.237,25.004z"/>
</svg>
